<svg xmlns="http://www.w3.org/2000/svg" xmlns:xlink="http://www.w3.org/1999/xlink" width="23" height="23"><defs><filter id="a" width="215.4%" height="215.4%" x="-57.7%" y="-57.7%" filterUnits="objectBoundingBox"><feOffset in="SourceAlpha" result="shadowOffsetOuter1"/><feGaussianBlur in="shadowOffsetOuter1" result="shadowBlurOuter1" stdDeviation="2.5"/><feColorMatrix in="shadowBlurOuter1" result="shadowMatrixOuter1" values="0 0 0 0 0 0 0 0 0 0 0 0 0 0 0 0 0 0 0.15 0"/><feMerge><feMergeNode in="shadowMatrixOuter1"/><feMergeNode in="SourceGraphic"/></feMerge></filter><path id="b" d="M8 10h1a1 1 0 0 0 1-1V1a1 1 0 0 0-1-1H1a1 1 0 0 0-1 1v1h7a1 1 0 0 1 1 1v7z"/><path id="d" d="M1 0h8a1 1 0 0 1 1 1v8a1 1 0 0 1-1 1H1a1 1 0 0 1-1-1V1a1 1 0 0 1 1-1z"/></defs><g fill="none" fill-rule="evenodd" filter="url(#a)" transform="translate(5 5)"><g transform="translate(3)"><mask id="c" fill="#fff"><use xlink:href="#b"/></mask><path fill="#FFF" mask="url(#c)" d="M-5 15h20V-5H-5z"/></g><g transform="translate(0 3)"><mask id="e" fill="#fff"><use xlink:href="#d"/></mask><path fill="#FFF" mask="url(#e)" d="M-5 15h20V-5H-5z"/></g></g></svg>